<svg width="1147" height="647" viewBox="0 0 1147 647" fill="none" xmlns="http://www.w3.org/2000/svg">
<path d="M156.186 529.031C137.145 483.406 53.3677 483.601 0.517029 491.73V646.434H1150.66V201.799C1152.92 183.834 1144.91 141.167 1094.82 114.22C1032.21 80.5351 1013.6 218.641 957.756 50.2191C913.083 -84.5187 880.481 83.9036 869.764 184.957C847.766 336.537 793.617 333.169 785.156 272.537C776.695 211.905 750.166 31.8362 538.101 361.8C355.91 645.282 357.98 519.466 347.89 468.776C348.851 433.389 307.532 341.095 264.29 477.384C224.486 602.841 195.104 622.281 156.186 529.031Z" fill="url(#paint0_linear_85_12)"/>
<defs>
<linearGradient id="paint0_linear_85_12" x1="575.758" y1="0.0753784" x2="575.758" y2="646.434" gradientUnits="userSpaceOnUse">
<stop stop-color="#008E53"/>
<stop offset="1" stop-opacity="0"/>
</linearGradient>
</defs>
</svg>
